<mxfile host="Electron" modified="2024-01-28T03:02:26.417Z" agent="Mozilla/5.0 (Windows NT 10.0; Win64; x64) AppleWebKit/537.36 (KHTML, like Gecko) draw.io/22.1.18 Chrome/120.0.6099.199 Electron/28.1.2 Safari/537.36" etag="5VLgmuEk3HIzeCiCAL1u" version="22.1.18" type="device">
  <diagram id="R2lEEEUBdFMjLlhIrx00" name="Page-1">
    <mxGraphModel dx="1900" dy="1769" grid="1" gridSize="10" guides="1" tooltips="1" connect="1" arrows="1" fold="1" page="1" pageScale="1" pageWidth="850" pageHeight="1100" math="0" shadow="0" extFonts="Permanent Marker^https://fonts.googleapis.com/css?family=Permanent+Marker">
      <root>
        <mxCell id="0" />
        <mxCell id="1" parent="0" />
        <mxCell id="To1Rc7DsGY2pkSY6rcWI-1" value="&lt;h2&gt;DimProduct&lt;/h2&gt;" style="swimlane;fontStyle=0;childLayout=stackLayout;horizontal=1;startSize=30;horizontalStack=0;resizeParent=1;resizeParentMax=0;resizeLast=0;collapsible=1;marginBottom=0;whiteSpace=wrap;html=1;rounded=0;glass=0;shadow=0;separatorColor=#141414;fillColor=#dae8fc;strokeColor=#6c8ebf;align=left;" parent="1" vertex="1">
          <mxGeometry x="-70" y="-760" width="350" height="200" as="geometry" />
        </mxCell>
        <mxCell id="To1Rc7DsGY2pkSY6rcWI-2" value="[Products]" style="text;strokeColor=#6c8ebf;fillColor=#dae8fc;align=left;verticalAlign=middle;spacingLeft=4;spacingRight=4;overflow=hidden;points=[[0,0.5],[1,0.5]];portConstraint=eastwest;rotatable=0;whiteSpace=wrap;html=1;fontStyle=1" parent="To1Rc7DsGY2pkSY6rcWI-1" vertex="1">
          <mxGeometry y="30" width="350" height="20" as="geometry" />
        </mxCell>
        <mxCell id="To1Rc7DsGY2pkSY6rcWI-3" value="ProductKey : INT&amp;nbsp;&lt;span style=&quot;white-space: pre;&quot;&gt;&#x9;&lt;/span&gt;&lt;b&gt;[PK]&lt;/b&gt;" style="text;strokeColor=#82b366;fillColor=#d5e8d4;align=left;verticalAlign=middle;spacingLeft=4;spacingRight=4;overflow=hidden;points=[[0,0.5],[1,0.5]];portConstraint=eastwest;rotatable=0;whiteSpace=wrap;html=1;fontStyle=0" parent="To1Rc7DsGY2pkSY6rcWI-1" vertex="1">
          <mxGeometry y="50" width="350" height="30" as="geometry" />
        </mxCell>
        <mxCell id="To1Rc7DsGY2pkSY6rcWI-48" value="StockCode : TEXT&amp;nbsp;" style="text;strokeColor=#82b366;fillColor=#d5e8d4;align=left;verticalAlign=middle;spacingLeft=4;spacingRight=4;overflow=hidden;points=[[0,0.5],[1,0.5]];portConstraint=eastwest;rotatable=0;whiteSpace=wrap;html=1;fontStyle=0" parent="To1Rc7DsGY2pkSY6rcWI-1" vertex="1">
          <mxGeometry y="80" width="350" height="30" as="geometry" />
        </mxCell>
        <mxCell id="To1Rc7DsGY2pkSY6rcWI-4" value="ProductName : TEXT&amp;nbsp;" style="text;strokeColor=#82b366;fillColor=#d5e8d4;align=left;verticalAlign=middle;spacingLeft=4;spacingRight=4;overflow=hidden;points=[[0,0.5],[1,0.5]];portConstraint=eastwest;rotatable=0;whiteSpace=wrap;html=1;fontStyle=0" parent="To1Rc7DsGY2pkSY6rcWI-1" vertex="1">
          <mxGeometry y="110" width="350" height="30" as="geometry" />
        </mxCell>
        <mxCell id="To1Rc7DsGY2pkSY6rcWI-5" value="Description : TEXT&amp;nbsp;" style="text;strokeColor=#82b366;fillColor=#d5e8d4;align=left;verticalAlign=middle;spacingLeft=4;spacingRight=4;overflow=hidden;points=[[0,0.5],[1,0.5]];portConstraint=eastwest;rotatable=0;whiteSpace=wrap;html=1;fontStyle=0" parent="To1Rc7DsGY2pkSY6rcWI-1" vertex="1">
          <mxGeometry y="140" width="350" height="30" as="geometry" />
        </mxCell>
        <mxCell id="To1Rc7DsGY2pkSY6rcWI-13" value="UnitPrice : Decimal&amp;nbsp;" style="text;strokeColor=#82b366;fillColor=#d5e8d4;align=left;verticalAlign=middle;spacingLeft=4;spacingRight=4;overflow=hidden;points=[[0,0.5],[1,0.5]];portConstraint=eastwest;rotatable=0;whiteSpace=wrap;html=1;fontStyle=0" parent="To1Rc7DsGY2pkSY6rcWI-1" vertex="1">
          <mxGeometry y="170" width="350" height="30" as="geometry" />
        </mxCell>
        <mxCell id="To1Rc7DsGY2pkSY6rcWI-8" value="&lt;h2&gt;DimCustomer&lt;/h2&gt;" style="swimlane;fontStyle=0;childLayout=stackLayout;horizontal=1;startSize=30;horizontalStack=0;resizeParent=1;resizeParentMax=0;resizeLast=0;collapsible=1;marginBottom=0;whiteSpace=wrap;html=1;rounded=0;glass=0;shadow=0;separatorColor=#141414;fillColor=#dae8fc;strokeColor=#6c8ebf;align=left;" parent="1" vertex="1">
          <mxGeometry x="360" y="-280" width="350" height="170" as="geometry" />
        </mxCell>
        <mxCell id="To1Rc7DsGY2pkSY6rcWI-9" value="[Customers]" style="text;strokeColor=#6c8ebf;fillColor=#dae8fc;align=left;verticalAlign=middle;spacingLeft=4;spacingRight=4;overflow=hidden;points=[[0,0.5],[1,0.5]];portConstraint=eastwest;rotatable=0;whiteSpace=wrap;html=1;fontStyle=1" parent="To1Rc7DsGY2pkSY6rcWI-8" vertex="1">
          <mxGeometry y="30" width="350" height="20" as="geometry" />
        </mxCell>
        <mxCell id="To1Rc7DsGY2pkSY6rcWI-10" value="CustomerKey : INT&amp;nbsp;&lt;span style=&quot;white-space: pre;&quot;&gt;&#x9;&lt;/span&gt;&lt;b&gt;[PK]&lt;/b&gt;" style="text;strokeColor=#82b366;fillColor=#d5e8d4;align=left;verticalAlign=middle;spacingLeft=4;spacingRight=4;overflow=hidden;points=[[0,0.5],[1,0.5]];portConstraint=eastwest;rotatable=0;whiteSpace=wrap;html=1;fontStyle=0" parent="To1Rc7DsGY2pkSY6rcWI-8" vertex="1">
          <mxGeometry y="50" width="350" height="30" as="geometry" />
        </mxCell>
        <mxCell id="To1Rc7DsGY2pkSY6rcWI-38" value="CustomerID : INT&amp;nbsp;" style="text;strokeColor=#82b366;fillColor=#d5e8d4;align=left;verticalAlign=middle;spacingLeft=4;spacingRight=4;overflow=hidden;points=[[0,0.5],[1,0.5]];portConstraint=eastwest;rotatable=0;whiteSpace=wrap;html=1;fontStyle=0" parent="To1Rc7DsGY2pkSY6rcWI-8" vertex="1">
          <mxGeometry y="80" width="350" height="30" as="geometry" />
        </mxCell>
        <mxCell id="To1Rc7DsGY2pkSY6rcWI-47" value="CustomerName : TEXT" style="text;strokeColor=#82b366;fillColor=#d5e8d4;align=left;verticalAlign=middle;spacingLeft=4;spacingRight=4;overflow=hidden;points=[[0,0.5],[1,0.5]];portConstraint=eastwest;rotatable=0;whiteSpace=wrap;html=1;fontStyle=0" parent="To1Rc7DsGY2pkSY6rcWI-8" vertex="1">
          <mxGeometry y="110" width="350" height="30" as="geometry" />
        </mxCell>
        <mxCell id="To1Rc7DsGY2pkSY6rcWI-11" value="Country : TEXT&amp;nbsp;" style="text;strokeColor=#82b366;fillColor=#d5e8d4;align=left;verticalAlign=middle;spacingLeft=4;spacingRight=4;overflow=hidden;points=[[0,0.5],[1,0.5]];portConstraint=eastwest;rotatable=0;whiteSpace=wrap;html=1;fontStyle=0" parent="To1Rc7DsGY2pkSY6rcWI-8" vertex="1">
          <mxGeometry y="140" width="350" height="30" as="geometry" />
        </mxCell>
        <mxCell id="To1Rc7DsGY2pkSY6rcWI-14" value="&lt;h2&gt;DimDate&lt;/h2&gt;" style="swimlane;fontStyle=0;childLayout=stackLayout;horizontal=1;startSize=30;horizontalStack=0;resizeParent=1;resizeParentMax=0;resizeLast=0;collapsible=1;marginBottom=0;whiteSpace=wrap;html=1;rounded=0;glass=0;shadow=0;separatorColor=#141414;fillColor=#dae8fc;strokeColor=#6c8ebf;align=left;" parent="1" vertex="1">
          <mxGeometry x="790" y="-840" width="350" height="290" as="geometry" />
        </mxCell>
        <mxCell id="To1Rc7DsGY2pkSY6rcWI-15" value="[Dates]" style="text;strokeColor=#6c8ebf;fillColor=#dae8fc;align=left;verticalAlign=middle;spacingLeft=4;spacingRight=4;overflow=hidden;points=[[0,0.5],[1,0.5]];portConstraint=eastwest;rotatable=0;whiteSpace=wrap;html=1;fontStyle=1" parent="To1Rc7DsGY2pkSY6rcWI-14" vertex="1">
          <mxGeometry y="30" width="350" height="20" as="geometry" />
        </mxCell>
        <mxCell id="To1Rc7DsGY2pkSY6rcWI-16" value="DateKey : INT&amp;nbsp; &amp;nbsp; &lt;b&gt;[PK]&lt;/b&gt;" style="text;strokeColor=#82b366;fillColor=#d5e8d4;align=left;verticalAlign=middle;spacingLeft=4;spacingRight=4;overflow=hidden;points=[[0,0.5],[1,0.5]];portConstraint=eastwest;rotatable=0;whiteSpace=wrap;html=1;fontStyle=0" parent="To1Rc7DsGY2pkSY6rcWI-14" vertex="1">
          <mxGeometry y="50" width="350" height="30" as="geometry" />
        </mxCell>
        <mxCell id="To1Rc7DsGY2pkSY6rcWI-17" value="FullDate : DATE&amp;nbsp;" style="text;strokeColor=#82b366;fillColor=#d5e8d4;align=left;verticalAlign=middle;spacingLeft=4;spacingRight=4;overflow=hidden;points=[[0,0.5],[1,0.5]];portConstraint=eastwest;rotatable=0;whiteSpace=wrap;html=1;fontStyle=0" parent="To1Rc7DsGY2pkSY6rcWI-14" vertex="1">
          <mxGeometry y="80" width="350" height="30" as="geometry" />
        </mxCell>
        <mxCell id="To1Rc7DsGY2pkSY6rcWI-18" value="Year : INT" style="text;strokeColor=#82b366;fillColor=#d5e8d4;align=left;verticalAlign=middle;spacingLeft=4;spacingRight=4;overflow=hidden;points=[[0,0.5],[1,0.5]];portConstraint=eastwest;rotatable=0;whiteSpace=wrap;html=1;fontStyle=0" parent="To1Rc7DsGY2pkSY6rcWI-14" vertex="1">
          <mxGeometry y="110" width="350" height="30" as="geometry" />
        </mxCell>
        <mxCell id="To1Rc7DsGY2pkSY6rcWI-19" value="Month : INT" style="text;strokeColor=#82b366;fillColor=#d5e8d4;align=left;verticalAlign=middle;spacingLeft=4;spacingRight=4;overflow=hidden;points=[[0,0.5],[1,0.5]];portConstraint=eastwest;rotatable=0;whiteSpace=wrap;html=1;fontStyle=0" parent="To1Rc7DsGY2pkSY6rcWI-14" vertex="1">
          <mxGeometry y="140" width="350" height="30" as="geometry" />
        </mxCell>
        <mxCell id="To1Rc7DsGY2pkSY6rcWI-26" value="Day : INT" style="text;strokeColor=#82b366;fillColor=#d5e8d4;align=left;verticalAlign=middle;spacingLeft=4;spacingRight=4;overflow=hidden;points=[[0,0.5],[1,0.5]];portConstraint=eastwest;rotatable=0;whiteSpace=wrap;html=1;fontStyle=0" parent="To1Rc7DsGY2pkSY6rcWI-14" vertex="1">
          <mxGeometry y="170" width="350" height="30" as="geometry" />
        </mxCell>
        <mxCell id="To1Rc7DsGY2pkSY6rcWI-37" value="Week : INT" style="text;strokeColor=#82b366;fillColor=#d5e8d4;align=left;verticalAlign=middle;spacingLeft=4;spacingRight=4;overflow=hidden;points=[[0,0.5],[1,0.5]];portConstraint=eastwest;rotatable=0;whiteSpace=wrap;html=1;fontStyle=0" parent="To1Rc7DsGY2pkSY6rcWI-14" vertex="1">
          <mxGeometry y="200" width="350" height="30" as="geometry" />
        </mxCell>
        <mxCell id="To1Rc7DsGY2pkSY6rcWI-34" value="MonthName : TEXT" style="text;strokeColor=#82b366;fillColor=#d5e8d4;align=left;verticalAlign=middle;spacingLeft=4;spacingRight=4;overflow=hidden;points=[[0,0.5],[1,0.5]];portConstraint=eastwest;rotatable=0;whiteSpace=wrap;html=1;fontStyle=0" parent="To1Rc7DsGY2pkSY6rcWI-14" vertex="1">
          <mxGeometry y="230" width="350" height="30" as="geometry" />
        </mxCell>
        <mxCell id="To1Rc7DsGY2pkSY6rcWI-35" value="DayName : TEXT" style="text;strokeColor=#82b366;fillColor=#d5e8d4;align=left;verticalAlign=middle;spacingLeft=4;spacingRight=4;overflow=hidden;points=[[0,0.5],[1,0.5]];portConstraint=eastwest;rotatable=0;whiteSpace=wrap;html=1;fontStyle=0" parent="To1Rc7DsGY2pkSY6rcWI-14" vertex="1">
          <mxGeometry y="260" width="350" height="30" as="geometry" />
        </mxCell>
        <mxCell id="To1Rc7DsGY2pkSY6rcWI-43" style="edgeStyle=orthogonalEdgeStyle;rounded=0;orthogonalLoop=1;jettySize=auto;html=1;exitX=1;exitY=0.5;exitDx=0;exitDy=0;" parent="1" source="To1Rc7DsGY2pkSY6rcWI-27" target="To1Rc7DsGY2pkSY6rcWI-16" edge="1">
          <mxGeometry relative="1" as="geometry" />
        </mxCell>
        <mxCell id="To1Rc7DsGY2pkSY6rcWI-27" value="&lt;h2&gt;FactRetailSales&lt;/h2&gt;" style="swimlane;fontStyle=0;childLayout=stackLayout;horizontal=1;startSize=30;horizontalStack=0;resizeParent=1;resizeParentMax=0;resizeLast=0;collapsible=1;marginBottom=0;whiteSpace=wrap;html=1;rounded=0;glass=0;shadow=0;separatorColor=#141414;fillColor=#dae8fc;strokeColor=#6c8ebf;align=left;" parent="1" vertex="1">
          <mxGeometry x="360" y="-640" width="350" height="290" as="geometry" />
        </mxCell>
        <mxCell id="To1Rc7DsGY2pkSY6rcWI-28" value="[RetailSales]" style="text;strokeColor=#6c8ebf;fillColor=#dae8fc;align=left;verticalAlign=middle;spacingLeft=4;spacingRight=4;overflow=hidden;points=[[0,0.5],[1,0.5]];portConstraint=eastwest;rotatable=0;whiteSpace=wrap;html=1;fontStyle=1" parent="To1Rc7DsGY2pkSY6rcWI-27" vertex="1">
          <mxGeometry y="30" width="350" height="20" as="geometry" />
        </mxCell>
        <mxCell id="To1Rc7DsGY2pkSY6rcWI-29" value="SalesKey : INT&amp;nbsp; &amp;nbsp;&lt;b&gt;[PK]&lt;/b&gt;" style="text;strokeColor=#82b366;fillColor=#d5e8d4;align=left;verticalAlign=middle;spacingLeft=4;spacingRight=4;overflow=hidden;points=[[0,0.5],[1,0.5]];portConstraint=eastwest;rotatable=0;whiteSpace=wrap;html=1;fontStyle=0" parent="To1Rc7DsGY2pkSY6rcWI-27" vertex="1">
          <mxGeometry y="50" width="350" height="30" as="geometry" />
        </mxCell>
        <mxCell id="To1Rc7DsGY2pkSY6rcWI-39" value="InvoiceNo : INT&amp;nbsp;" style="text;strokeColor=#82b366;fillColor=#d5e8d4;align=left;verticalAlign=middle;spacingLeft=4;spacingRight=4;overflow=hidden;points=[[0,0.5],[1,0.5]];portConstraint=eastwest;rotatable=0;whiteSpace=wrap;html=1;fontStyle=0" parent="To1Rc7DsGY2pkSY6rcWI-27" vertex="1">
          <mxGeometry y="80" width="350" height="30" as="geometry" />
        </mxCell>
        <mxCell id="To1Rc7DsGY2pkSY6rcWI-30" value="DateKey : INT" style="text;strokeColor=#82b366;fillColor=#d5e8d4;align=left;verticalAlign=middle;spacingLeft=4;spacingRight=4;overflow=hidden;points=[[0,0.5],[1,0.5]];portConstraint=eastwest;rotatable=0;whiteSpace=wrap;html=1;fontStyle=0" parent="To1Rc7DsGY2pkSY6rcWI-27" vertex="1">
          <mxGeometry y="110" width="350" height="30" as="geometry" />
        </mxCell>
        <mxCell id="To1Rc7DsGY2pkSY6rcWI-31" value="CustomerKey : INT" style="text;strokeColor=#82b366;fillColor=#d5e8d4;align=left;verticalAlign=middle;spacingLeft=4;spacingRight=4;overflow=hidden;points=[[0,0.5],[1,0.5]];portConstraint=eastwest;rotatable=0;whiteSpace=wrap;html=1;fontStyle=0" parent="To1Rc7DsGY2pkSY6rcWI-27" vertex="1">
          <mxGeometry y="140" width="350" height="30" as="geometry" />
        </mxCell>
        <mxCell id="To1Rc7DsGY2pkSY6rcWI-32" value="ProductKey : INT" style="text;strokeColor=#82b366;fillColor=#d5e8d4;align=left;verticalAlign=middle;spacingLeft=4;spacingRight=4;overflow=hidden;points=[[0,0.5],[1,0.5]];portConstraint=eastwest;rotatable=0;whiteSpace=wrap;html=1;fontStyle=0" parent="To1Rc7DsGY2pkSY6rcWI-27" vertex="1">
          <mxGeometry y="170" width="350" height="30" as="geometry" />
        </mxCell>
        <mxCell id="_jdsCQIprTJlHzPKkMZa-1" value="InvoiceDate: DATETIME" style="text;strokeColor=#82b366;fillColor=#d5e8d4;align=left;verticalAlign=middle;spacingLeft=4;spacingRight=4;overflow=hidden;points=[[0,0.5],[1,0.5]];portConstraint=eastwest;rotatable=0;whiteSpace=wrap;html=1;fontStyle=0" vertex="1" parent="To1Rc7DsGY2pkSY6rcWI-27">
          <mxGeometry y="200" width="350" height="30" as="geometry" />
        </mxCell>
        <mxCell id="To1Rc7DsGY2pkSY6rcWI-33" value="Quantity : INT" style="text;strokeColor=#82b366;fillColor=#d5e8d4;align=left;verticalAlign=middle;spacingLeft=4;spacingRight=4;overflow=hidden;points=[[0,0.5],[1,0.5]];portConstraint=eastwest;rotatable=0;whiteSpace=wrap;html=1;fontStyle=0" parent="To1Rc7DsGY2pkSY6rcWI-27" vertex="1">
          <mxGeometry y="230" width="350" height="30" as="geometry" />
        </mxCell>
        <mxCell id="To1Rc7DsGY2pkSY6rcWI-40" value="TotalLine : Float&amp;nbsp;" style="text;strokeColor=#82b366;fillColor=#d5e8d4;align=left;verticalAlign=middle;spacingLeft=4;spacingRight=4;overflow=hidden;points=[[0,0.5],[1,0.5]];portConstraint=eastwest;rotatable=0;whiteSpace=wrap;html=1;fontStyle=0" parent="To1Rc7DsGY2pkSY6rcWI-27" vertex="1">
          <mxGeometry y="260" width="350" height="30" as="geometry" />
        </mxCell>
        <mxCell id="To1Rc7DsGY2pkSY6rcWI-45" style="edgeStyle=orthogonalEdgeStyle;rounded=0;orthogonalLoop=1;jettySize=auto;html=1;exitX=0;exitY=0.5;exitDx=0;exitDy=0;entryX=1;entryY=0.5;entryDx=0;entryDy=0;" parent="1" source="To1Rc7DsGY2pkSY6rcWI-32" target="To1Rc7DsGY2pkSY6rcWI-3" edge="1">
          <mxGeometry relative="1" as="geometry" />
        </mxCell>
        <mxCell id="To1Rc7DsGY2pkSY6rcWI-46" style="edgeStyle=orthogonalEdgeStyle;rounded=0;orthogonalLoop=1;jettySize=auto;html=1;exitX=1;exitY=0.5;exitDx=0;exitDy=0;entryX=1;entryY=0.5;entryDx=0;entryDy=0;" parent="1" source="To1Rc7DsGY2pkSY6rcWI-31" target="To1Rc7DsGY2pkSY6rcWI-8" edge="1">
          <mxGeometry relative="1" as="geometry" />
        </mxCell>
      </root>
    </mxGraphModel>
  </diagram>
</mxfile>
